<?xml version="1.0" encoding="UTF-8" standalone="no"?>
<!-- Created with Inkscape (http://www.inkscape.org/) -->

<svg
   width="17.716677mm"
   height="18.297701mm"
   viewBox="0 0 17.716677 18.297701"
   version="1.1"
   id="svg1"
   xmlns="http://www.w3.org/2000/svg"
   xmlns:svg="http://www.w3.org/2000/svg">
  <defs
     id="defs1" />
  <g
     id="layer1"
     transform="translate(-90.222916,-115.35833)">
    <g
       id="g95"
       transform="matrix(0.26458333,0,0,0.26458333,66.640005,88.109742)">
      <path
         id="path12"
         d="M 0,0 C -0.55,0 -1.08,-0.08 -1.586,-0.219 L -2.924,-2.386 C -1.754,-4.77 0,-8.048 2.193,-10.246 l 2.402,0.295 C 5.494,-8.896 6.04,-7.532 6.04,-6.04 6.04,-2.709 3.331,0 0,0"
         style="fill:#163e6c;fill-opacity:1;fill-rule:nonzero;stroke:none"
         transform="matrix(1.3333333,0,0,-1.3333333,103.96693,135.98107)" />
      <path
         id="path13"
         d="m 0,0 c 2.941,0 5.325,-2.384 5.325,-5.325 0,-2.942 -2.384,-5.326 -5.325,-5.326 -2.941,0 -5.325,2.384 -5.325,5.326 C -5.325,-2.384 -2.941,0 0,0 m 0,-14.862 c 5.259,0 9.537,4.278 9.537,9.537 0,5.259 -4.278,9.537 -9.537,9.537 -5.259,0 -9.537,-4.278 -9.537,-9.537 0,-0.967 0.147,-1.9 0.416,-2.78 0.901,-1.104 1.625,-2.354 2.148,-3.705 1.743,-1.872 4.22,-3.052 6.973,-3.052"
         style="fill:#163e6c;fill-opacity:1;fill-rule:nonzero;stroke:none"
         transform="matrix(1.3333333,0,0,-1.3333333,130.2548,121.7252)" />
      <path
         id="path14"
         d="M 0,0 C 0,0.355 -0.014,0.708 -0.035,1.059 L 1.738,2.044 C 1.522,4.117 0.978,6.091 0.163,7.919 L -1.862,7.885 C -2.18,8.52 -2.533,9.133 -2.923,9.721 l 1.041,1.736 c -1.201,1.648 -2.653,3.101 -4.302,4.301 l -1.735,-1.04 c -0.588,0.389 -1.201,0.743 -1.836,1.06 l 0.033,2.026 c -1.827,0.814 -3.801,1.359 -5.874,1.575 l -0.985,-1.774 c -0.351,0.021 -0.703,0.035 -1.06,0.035 -0.355,0 -0.708,-0.014 -1.059,-0.035 l -0.985,1.774 c -2.073,-0.216 -4.046,-0.761 -5.875,-1.575 l 0.034,-2.026 c -0.635,-0.317 -1.247,-0.671 -1.836,-1.06 l -1.736,1.04 c -1.648,-1.2 -3.1,-2.653 -4.301,-4.301 l 1.041,-1.736 c -0.39,-0.588 -0.744,-1.201 -1.061,-1.836 l -2.025,0.034 c -0.788,-1.768 -1.317,-3.675 -1.546,-5.674 2.692,-0.072 5.186,-0.927 7.274,-2.336 0,0.031 -0.005,0.06 -0.005,0.091 0,6.661 5.419,12.08 12.08,12.08 6.662,0 12.08,-5.419 12.08,-12.08 0,-6.661 -5.418,-12.08 -12.08,-12.08 -2.224,0 -4.303,0.615 -6.095,1.668 0.024,-0.33 0.049,-0.659 0.049,-0.995 0,-2.349 -0.593,-4.56 -1.637,-6.491 1.762,-0.758 3.653,-1.274 5.639,-1.481 l 0.985,1.773 c 0.351,-0.02 0.704,-0.034 1.059,-0.034 0.357,0 0.709,0.014 1.06,0.034 l 0.985,-1.773 c 2.073,0.216 4.047,0.761 5.874,1.575 l -0.033,2.025 c 0.635,0.318 1.248,0.672 1.836,1.061 l 1.735,-1.041 c 1.649,1.201 3.101,2.653 4.302,4.302 l -1.041,1.735 c 0.39,0.588 0.743,1.201 1.061,1.836 l 2.025,-0.033 c 0.815,1.828 1.359,3.801 1.575,5.875 L -0.035,-1.06 C -0.014,-0.709 0,-0.356 0,0"
         style="fill:#163e6c;fill-opacity:1;fill-rule:nonzero;stroke:none"
         transform="matrix(1.3333333,0,0,-1.3333333,153.7756,128.82547)" />
      <path
         id="path15"
         d="m 0,0 c -4.732,0 -8.583,3.85 -8.583,8.583 0,4.733 3.851,8.584 8.583,8.584 4.733,0 8.584,-3.851 8.584,-8.584 C 8.584,3.85 4.733,0 0,0 m 0,19.71 c -6.135,0 -11.126,-4.992 -11.126,-11.127 0,-6.135 4.991,-11.126 11.126,-11.126 6.136,0 11.127,4.991 11.127,11.126 C 11.127,14.718 6.136,19.71 0,19.71"
         style="fill:#163e6c;fill-opacity:1;fill-rule:nonzero;stroke:none"
         transform="matrix(1.3333333,0,0,-1.3333333,103.96693,155.4792)" />
      <path
         id="path16"
         d="M 0,0 -6.777,9.009 C -7.717,8.075 -8.793,7.277 -9.971,6.646 l 6.792,-9.028 z"
         style="fill:#163e6c;fill-opacity:1;fill-rule:nonzero;stroke:none"
         transform="matrix(1.3333333,0,0,-1.3333333,125.842,168.96747)" />
    </g>
  </g>
</svg>
